<mxfile host="app.diagrams.net" agent="Mozilla/5.0 (X11; Linux x86_64) AppleWebKit/537.36 (KHTML, like Gecko) Chrome/114.0.0.0 Safari/537.36" version="24.7.8">
  <diagram name="Page-1" id="QUSey8hAAMfglMV7hoTO">
    <mxGraphModel dx="1362" dy="775" grid="1" gridSize="10" guides="1" tooltips="1" connect="1" arrows="1" fold="1" page="1" pageScale="1" pageWidth="850" pageHeight="1100" math="0" shadow="0">
      <root>
        <mxCell id="0" />
        <mxCell id="1" parent="0" />
        <mxCell id="0Jgzdlky9uCCFu9JZYMr-7" value="AWS Cloud" style="points=[[0,0],[0.25,0],[0.5,0],[0.75,0],[1,0],[1,0.25],[1,0.5],[1,0.75],[1,1],[0.75,1],[0.5,1],[0.25,1],[0,1],[0,0.75],[0,0.5],[0,0.25]];outlineConnect=0;gradientColor=none;html=1;whiteSpace=wrap;fontSize=12;fontStyle=0;container=1;pointerEvents=0;collapsible=0;recursiveResize=0;shape=mxgraph.aws4.group;grIcon=mxgraph.aws4.group_aws_cloud_alt;strokeColor=#232F3E;fillColor=none;verticalAlign=top;align=left;spacingLeft=30;fontColor=#232F3E;dashed=0;strokeWidth=2;" vertex="1" parent="1">
          <mxGeometry x="110" y="200" width="735" height="750" as="geometry" />
        </mxCell>
        <mxCell id="0Jgzdlky9uCCFu9JZYMr-67" style="edgeStyle=orthogonalEdgeStyle;rounded=0;orthogonalLoop=1;jettySize=auto;html=1;exitX=0.5;exitY=1;exitDx=0;exitDy=0;exitPerimeter=0;" edge="1" parent="0Jgzdlky9uCCFu9JZYMr-7" source="0Jgzdlky9uCCFu9JZYMr-9" target="0Jgzdlky9uCCFu9JZYMr-10">
          <mxGeometry relative="1" as="geometry" />
        </mxCell>
        <mxCell id="0Jgzdlky9uCCFu9JZYMr-9" value="&lt;b&gt;Route 53 - DNS&lt;/b&gt;" style="sketch=0;points=[[0,0,0],[0.25,0,0],[0.5,0,0],[0.75,0,0],[1,0,0],[0,1,0],[0.25,1,0],[0.5,1,0],[0.75,1,0],[1,1,0],[0,0.25,0],[0,0.5,0],[0,0.75,0],[1,0.25,0],[1,0.5,0],[1,0.75,0]];outlineConnect=0;fontColor=#232F3E;fillColor=#8C4FFF;strokeColor=#ffffff;dashed=0;verticalLabelPosition=bottom;verticalAlign=top;align=center;html=1;fontSize=12;fontStyle=0;aspect=fixed;shape=mxgraph.aws4.resourceIcon;resIcon=mxgraph.aws4.route_53;" vertex="1" parent="0Jgzdlky9uCCFu9JZYMr-7">
          <mxGeometry x="325" y="20" width="50" height="50" as="geometry" />
        </mxCell>
        <mxCell id="0Jgzdlky9uCCFu9JZYMr-41" style="edgeStyle=orthogonalEdgeStyle;rounded=0;orthogonalLoop=1;jettySize=auto;html=1;exitX=0.5;exitY=1;exitDx=0;exitDy=0;exitPerimeter=0;" edge="1" parent="0Jgzdlky9uCCFu9JZYMr-7" source="0Jgzdlky9uCCFu9JZYMr-10" target="0Jgzdlky9uCCFu9JZYMr-27">
          <mxGeometry relative="1" as="geometry" />
        </mxCell>
        <mxCell id="0Jgzdlky9uCCFu9JZYMr-10" value="&lt;b&gt;AWS WAF&lt;/b&gt;" style="sketch=0;points=[[0,0,0],[0.25,0,0],[0.5,0,0],[0.75,0,0],[1,0,0],[0,1,0],[0.25,1,0],[0.5,1,0],[0.75,1,0],[1,1,0],[0,0.25,0],[0,0.5,0],[0,0.75,0],[1,0.25,0],[1,0.5,0],[1,0.75,0]];outlineConnect=0;fontColor=#232F3E;fillColor=#DD344C;strokeColor=#ffffff;dashed=0;verticalLabelPosition=bottom;verticalAlign=top;align=center;html=1;fontSize=12;fontStyle=0;aspect=fixed;shape=mxgraph.aws4.resourceIcon;resIcon=mxgraph.aws4.waf;" vertex="1" parent="0Jgzdlky9uCCFu9JZYMr-7">
          <mxGeometry x="325" y="120" width="50" height="50" as="geometry" />
        </mxCell>
        <mxCell id="0Jgzdlky9uCCFu9JZYMr-11" value="AWS Shield" style="sketch=0;points=[[0,0,0],[0.25,0,0],[0.5,0,0],[0.75,0,0],[1,0,0],[0,1,0],[0.25,1,0],[0.5,1,0],[0.75,1,0],[1,1,0],[0,0.25,0],[0,0.5,0],[0,0.75,0],[1,0.25,0],[1,0.5,0],[1,0.75,0]];outlineConnect=0;fontColor=#232F3E;fillColor=#DD344C;strokeColor=#ffffff;dashed=0;verticalLabelPosition=bottom;verticalAlign=top;align=center;html=1;fontSize=12;fontStyle=1;aspect=fixed;shape=mxgraph.aws4.resourceIcon;resIcon=mxgraph.aws4.shield;" vertex="1" parent="0Jgzdlky9uCCFu9JZYMr-7">
          <mxGeometry x="645" y="10" width="70" height="70" as="geometry" />
        </mxCell>
        <mxCell id="0Jgzdlky9uCCFu9JZYMr-12" value="Amazon S3" style="sketch=0;outlineConnect=0;fontColor=#232F3E;gradientColor=none;strokeColor=#ffffff;fillColor=#232F3E;dashed=0;verticalLabelPosition=middle;verticalAlign=bottom;align=center;html=1;whiteSpace=wrap;fontSize=10;fontStyle=1;spacing=3;shape=mxgraph.aws4.productIcon;prIcon=mxgraph.aws4.s3;" vertex="1" parent="0Jgzdlky9uCCFu9JZYMr-7">
          <mxGeometry x="335" y="630" width="65" height="90" as="geometry" />
        </mxCell>
        <mxCell id="0Jgzdlky9uCCFu9JZYMr-58" style="edgeStyle=orthogonalEdgeStyle;rounded=0;orthogonalLoop=1;jettySize=auto;html=1;exitX=0.75;exitY=1;exitDx=0;exitDy=0;exitPerimeter=0;" edge="1" parent="0Jgzdlky9uCCFu9JZYMr-7" source="0Jgzdlky9uCCFu9JZYMr-13" target="0Jgzdlky9uCCFu9JZYMr-17">
          <mxGeometry relative="1" as="geometry">
            <Array as="points">
              <mxPoint x="558" y="328" />
              <mxPoint x="590" y="328" />
            </Array>
          </mxGeometry>
        </mxCell>
        <mxCell id="0Jgzdlky9uCCFu9JZYMr-60" value="Monitor" style="edgeLabel;html=1;align=center;verticalAlign=middle;resizable=0;points=[];fontStyle=2" vertex="1" connectable="0" parent="0Jgzdlky9uCCFu9JZYMr-58">
          <mxGeometry x="0.4072" y="2" relative="1" as="geometry">
            <mxPoint as="offset" />
          </mxGeometry>
        </mxCell>
        <mxCell id="0Jgzdlky9uCCFu9JZYMr-13" value="&lt;b&gt;AWS CloudWatch&lt;/b&gt;" style="sketch=0;points=[[0,0,0],[0.25,0,0],[0.5,0,0],[0.75,0,0],[1,0,0],[0,1,0],[0.25,1,0],[0.5,1,0],[0.75,1,0],[1,1,0],[0,0.25,0],[0,0.5,0],[0,0.75,0],[1,0.25,0],[1,0.5,0],[1,0.75,0]];points=[[0,0,0],[0.25,0,0],[0.5,0,0],[0.75,0,0],[1,0,0],[0,1,0],[0.25,1,0],[0.5,1,0],[0.75,1,0],[1,1,0],[0,0.25,0],[0,0.5,0],[0,0.75,0],[1,0.25,0],[1,0.5,0],[1,0.75,0]];outlineConnect=0;fontColor=#232F3E;fillColor=#E7157B;strokeColor=#ffffff;dashed=0;verticalLabelPosition=bottom;verticalAlign=top;align=center;html=1;fontSize=12;fontStyle=0;aspect=fixed;shape=mxgraph.aws4.resourceIcon;resIcon=mxgraph.aws4.cloudwatch_2;" vertex="1" parent="0Jgzdlky9uCCFu9JZYMr-7">
          <mxGeometry x="520" y="120" width="50" height="50" as="geometry" />
        </mxCell>
        <mxCell id="0Jgzdlky9uCCFu9JZYMr-17" value="Amazon RDS" style="sketch=0;outlineConnect=0;fontColor=#232F3E;gradientColor=none;strokeColor=#ffffff;fillColor=#232F3E;dashed=0;verticalLabelPosition=middle;verticalAlign=bottom;align=center;html=1;whiteSpace=wrap;fontSize=10;fontStyle=1;spacing=3;shape=mxgraph.aws4.productIcon;prIcon=mxgraph.aws4.rds;" vertex="1" parent="0Jgzdlky9uCCFu9JZYMr-7">
          <mxGeometry x="515" y="485" width="80" height="100" as="geometry" />
        </mxCell>
        <mxCell id="0Jgzdlky9uCCFu9JZYMr-18" value="Amazon ElastiCache" style="sketch=0;outlineConnect=0;fontColor=#232F3E;gradientColor=none;strokeColor=#ffffff;fillColor=#232F3E;dashed=0;verticalLabelPosition=middle;verticalAlign=bottom;align=center;html=1;whiteSpace=wrap;fontSize=10;fontStyle=1;spacing=3;shape=mxgraph.aws4.productIcon;prIcon=mxgraph.aws4.elasticache;" vertex="1" parent="0Jgzdlky9uCCFu9JZYMr-7">
          <mxGeometry x="150" y="480" width="80" height="110" as="geometry" />
        </mxCell>
        <mxCell id="0Jgzdlky9uCCFu9JZYMr-19" value="Auto Scaling group" style="points=[[0,0],[0.25,0],[0.5,0],[0.75,0],[1,0],[1,0.25],[1,0.5],[1,0.75],[1,1],[0.75,1],[0.5,1],[0.25,1],[0,1],[0,0.75],[0,0.5],[0,0.25]];outlineConnect=0;gradientColor=none;html=1;whiteSpace=wrap;fontSize=12;fontStyle=0;container=1;pointerEvents=0;collapsible=0;recursiveResize=0;shape=mxgraph.aws4.groupCenter;grIcon=mxgraph.aws4.group_auto_scaling_group;grStroke=1;strokeColor=#D86613;fillColor=none;verticalAlign=top;align=center;fontColor=#D86613;dashed=1;spacingTop=25;" vertex="1" parent="0Jgzdlky9uCCFu9JZYMr-7">
          <mxGeometry x="170" y="230" width="400" height="220" as="geometry" />
        </mxCell>
        <mxCell id="0Jgzdlky9uCCFu9JZYMr-22" value="AWS EC2" style="outlineConnect=0;dashed=0;verticalLabelPosition=bottom;verticalAlign=top;align=center;html=1;shape=mxgraph.aws3.ec2;fillColor=#F58534;gradientColor=none;fontStyle=1" vertex="1" parent="0Jgzdlky9uCCFu9JZYMr-19">
          <mxGeometry x="55" y="160" width="40" height="30" as="geometry" />
        </mxCell>
        <mxCell id="0Jgzdlky9uCCFu9JZYMr-24" value="AWS EC2" style="outlineConnect=0;dashed=0;verticalLabelPosition=bottom;verticalAlign=top;align=center;html=1;shape=mxgraph.aws3.ec2;fillColor=#F58534;gradientColor=none;fontStyle=1" vertex="1" parent="0Jgzdlky9uCCFu9JZYMr-19">
          <mxGeometry x="265" y="160" width="40" height="30" as="geometry" />
        </mxCell>
        <mxCell id="0Jgzdlky9uCCFu9JZYMr-28" style="edgeStyle=orthogonalEdgeStyle;rounded=0;orthogonalLoop=1;jettySize=auto;html=1;exitX=0;exitY=0.79;exitDx=0;exitDy=0;exitPerimeter=0;" edge="1" parent="0Jgzdlky9uCCFu9JZYMr-19" source="0Jgzdlky9uCCFu9JZYMr-27" target="0Jgzdlky9uCCFu9JZYMr-22">
          <mxGeometry relative="1" as="geometry" />
        </mxCell>
        <mxCell id="0Jgzdlky9uCCFu9JZYMr-30" style="edgeStyle=orthogonalEdgeStyle;rounded=0;orthogonalLoop=1;jettySize=auto;html=1;exitX=1;exitY=0.79;exitDx=0;exitDy=0;exitPerimeter=0;" edge="1" parent="0Jgzdlky9uCCFu9JZYMr-19" source="0Jgzdlky9uCCFu9JZYMr-27" target="0Jgzdlky9uCCFu9JZYMr-24">
          <mxGeometry relative="1" as="geometry" />
        </mxCell>
        <mxCell id="0Jgzdlky9uCCFu9JZYMr-27" value="&lt;b&gt;AWS ELB&lt;/b&gt;" style="outlineConnect=0;dashed=0;verticalLabelPosition=bottom;verticalAlign=top;align=center;html=1;shape=mxgraph.aws3.elastic_load_balancing;fillColor=#F58534;gradientColor=none;" vertex="1" parent="0Jgzdlky9uCCFu9JZYMr-19">
          <mxGeometry x="160" y="50" width="40" height="40" as="geometry" />
        </mxCell>
        <mxCell id="0Jgzdlky9uCCFu9JZYMr-32" style="edgeStyle=orthogonalEdgeStyle;rounded=0;orthogonalLoop=1;jettySize=auto;html=1;exitX=0;exitY=0.79;exitDx=0;exitDy=0;exitPerimeter=0;" edge="1" parent="0Jgzdlky9uCCFu9JZYMr-7" source="0Jgzdlky9uCCFu9JZYMr-22" target="0Jgzdlky9uCCFu9JZYMr-18">
          <mxGeometry relative="1" as="geometry" />
        </mxCell>
        <mxCell id="0Jgzdlky9uCCFu9JZYMr-49" value="&lt;i&gt;Get cache data&lt;/i&gt;" style="edgeLabel;html=1;align=center;verticalAlign=middle;resizable=0;points=[];" vertex="1" connectable="0" parent="0Jgzdlky9uCCFu9JZYMr-32">
          <mxGeometry x="0.1115" y="-2" relative="1" as="geometry">
            <mxPoint x="2" y="25" as="offset" />
          </mxGeometry>
        </mxCell>
        <mxCell id="0Jgzdlky9uCCFu9JZYMr-33" style="edgeStyle=orthogonalEdgeStyle;rounded=0;orthogonalLoop=1;jettySize=auto;html=1;" edge="1" parent="0Jgzdlky9uCCFu9JZYMr-7" source="0Jgzdlky9uCCFu9JZYMr-22" target="0Jgzdlky9uCCFu9JZYMr-17">
          <mxGeometry relative="1" as="geometry">
            <Array as="points">
              <mxPoint x="260" y="500" />
            </Array>
          </mxGeometry>
        </mxCell>
        <mxCell id="0Jgzdlky9uCCFu9JZYMr-46" value="&lt;i&gt;Query data&lt;/i&gt;" style="edgeLabel;html=1;align=center;verticalAlign=middle;resizable=0;points=[];" vertex="1" connectable="0" parent="0Jgzdlky9uCCFu9JZYMr-33">
          <mxGeometry x="0.0269" y="-1" relative="1" as="geometry">
            <mxPoint as="offset" />
          </mxGeometry>
        </mxCell>
        <mxCell id="0Jgzdlky9uCCFu9JZYMr-34" style="edgeStyle=orthogonalEdgeStyle;rounded=0;orthogonalLoop=1;jettySize=auto;html=1;" edge="1" parent="0Jgzdlky9uCCFu9JZYMr-7" source="0Jgzdlky9uCCFu9JZYMr-24" target="0Jgzdlky9uCCFu9JZYMr-18">
          <mxGeometry relative="1" as="geometry">
            <Array as="points">
              <mxPoint x="470" y="530" />
            </Array>
          </mxGeometry>
        </mxCell>
        <mxCell id="0Jgzdlky9uCCFu9JZYMr-48" value="&lt;i&gt;Get cache data&lt;/i&gt;" style="edgeLabel;html=1;align=center;verticalAlign=middle;resizable=0;points=[];" vertex="1" connectable="0" parent="0Jgzdlky9uCCFu9JZYMr-34">
          <mxGeometry x="0.3143" y="-2" relative="1" as="geometry">
            <mxPoint as="offset" />
          </mxGeometry>
        </mxCell>
        <mxCell id="0Jgzdlky9uCCFu9JZYMr-35" style="edgeStyle=orthogonalEdgeStyle;rounded=0;orthogonalLoop=1;jettySize=auto;html=1;exitX=1;exitY=0.5;exitDx=0;exitDy=0;exitPerimeter=0;" edge="1" parent="0Jgzdlky9uCCFu9JZYMr-7" source="0Jgzdlky9uCCFu9JZYMr-24" target="0Jgzdlky9uCCFu9JZYMr-17">
          <mxGeometry relative="1" as="geometry" />
        </mxCell>
        <mxCell id="0Jgzdlky9uCCFu9JZYMr-47" value="&lt;i&gt;Query data&lt;/i&gt;" style="edgeLabel;html=1;align=center;verticalAlign=middle;resizable=0;points=[];" vertex="1" connectable="0" parent="0Jgzdlky9uCCFu9JZYMr-35">
          <mxGeometry x="-0.1875" y="-2" relative="1" as="geometry">
            <mxPoint as="offset" />
          </mxGeometry>
        </mxCell>
        <mxCell id="0Jgzdlky9uCCFu9JZYMr-36" style="edgeStyle=orthogonalEdgeStyle;rounded=0;orthogonalLoop=1;jettySize=auto;html=1;exitX=0.5;exitY=1;exitDx=0;exitDy=0;exitPerimeter=0;" edge="1" parent="0Jgzdlky9uCCFu9JZYMr-7" source="0Jgzdlky9uCCFu9JZYMr-22" target="0Jgzdlky9uCCFu9JZYMr-12">
          <mxGeometry relative="1" as="geometry">
            <Array as="points">
              <mxPoint x="250" y="420" />
              <mxPoint x="250" y="660" />
            </Array>
          </mxGeometry>
        </mxCell>
        <mxCell id="0Jgzdlky9uCCFu9JZYMr-45" value="&lt;i style=&quot;border-color: var(--border-color);&quot;&gt;Get static contents&lt;/i&gt;" style="edgeLabel;html=1;align=center;verticalAlign=middle;resizable=0;points=[];" vertex="1" connectable="0" parent="0Jgzdlky9uCCFu9JZYMr-36">
          <mxGeometry x="0.0182" y="4" relative="1" as="geometry">
            <mxPoint x="-9" y="37" as="offset" />
          </mxGeometry>
        </mxCell>
        <mxCell id="0Jgzdlky9uCCFu9JZYMr-37" style="edgeStyle=orthogonalEdgeStyle;rounded=0;orthogonalLoop=1;jettySize=auto;html=1;exitX=0.5;exitY=1;exitDx=0;exitDy=0;exitPerimeter=0;" edge="1" parent="0Jgzdlky9uCCFu9JZYMr-7" source="0Jgzdlky9uCCFu9JZYMr-24" target="0Jgzdlky9uCCFu9JZYMr-12">
          <mxGeometry relative="1" as="geometry">
            <Array as="points">
              <mxPoint x="455" y="660" />
            </Array>
          </mxGeometry>
        </mxCell>
        <mxCell id="0Jgzdlky9uCCFu9JZYMr-44" value="&lt;i&gt;Get static contents&lt;/i&gt;" style="edgeLabel;html=1;align=center;verticalAlign=middle;resizable=0;points=[];" vertex="1" connectable="0" parent="0Jgzdlky9uCCFu9JZYMr-37">
          <mxGeometry x="0.0644" y="3" relative="1" as="geometry">
            <mxPoint x="17" y="43" as="offset" />
          </mxGeometry>
        </mxCell>
        <mxCell id="0Jgzdlky9uCCFu9JZYMr-43" style="edgeStyle=orthogonalEdgeStyle;rounded=0;orthogonalLoop=1;jettySize=auto;html=1;exitX=0.5;exitY=1;exitDx=0;exitDy=0;exitPerimeter=0;" edge="1" parent="0Jgzdlky9uCCFu9JZYMr-7" source="0Jgzdlky9uCCFu9JZYMr-10" target="0Jgzdlky9uCCFu9JZYMr-10">
          <mxGeometry relative="1" as="geometry" />
        </mxCell>
        <mxCell id="0Jgzdlky9uCCFu9JZYMr-55" style="edgeStyle=orthogonalEdgeStyle;rounded=0;orthogonalLoop=1;jettySize=auto;html=1;exitX=0.25;exitY=1;exitDx=0;exitDy=0;exitPerimeter=0;entryX=0.835;entryY=0.5;entryDx=0;entryDy=0;entryPerimeter=0;" edge="1" parent="0Jgzdlky9uCCFu9JZYMr-7" source="0Jgzdlky9uCCFu9JZYMr-13" target="0Jgzdlky9uCCFu9JZYMr-27">
          <mxGeometry relative="1" as="geometry">
            <Array as="points">
              <mxPoint x="533" y="300" />
            </Array>
          </mxGeometry>
        </mxCell>
        <mxCell id="0Jgzdlky9uCCFu9JZYMr-59" value="&lt;i&gt;Monitor&lt;/i&gt;" style="edgeLabel;html=1;align=center;verticalAlign=middle;resizable=0;points=[];" vertex="1" connectable="0" parent="0Jgzdlky9uCCFu9JZYMr-55">
          <mxGeometry x="-0.3648" y="2" relative="1" as="geometry">
            <mxPoint as="offset" />
          </mxGeometry>
        </mxCell>
        <mxCell id="0Jgzdlky9uCCFu9JZYMr-38" value="VPC" style="sketch=0;outlineConnect=0;gradientColor=none;html=1;whiteSpace=wrap;fontSize=12;fontStyle=0;shape=mxgraph.aws4.group;grIcon=mxgraph.aws4.group_vpc;strokeColor=#879196;fillColor=none;verticalAlign=top;align=left;spacingLeft=30;fontColor=#879196;dashed=0;" vertex="1" parent="0Jgzdlky9uCCFu9JZYMr-7">
          <mxGeometry x="70" y="210" width="640" height="400" as="geometry" />
        </mxCell>
        <mxCell id="0Jgzdlky9uCCFu9JZYMr-8" value="&lt;b&gt;User&lt;/b&gt;" style="image;points=[];aspect=fixed;html=1;align=center;shadow=0;dashed=0;image=img/lib/allied_telesis/computer_and_terminals/Personal_Computer_Wireless.svg;" vertex="1" parent="1">
          <mxGeometry x="430" y="40" width="63" height="64.2" as="geometry" />
        </mxCell>
        <mxCell id="0Jgzdlky9uCCFu9JZYMr-65" value="" style="endArrow=classic;html=1;rounded=0;entryX=0.5;entryY=0;entryDx=0;entryDy=0;entryPerimeter=0;" edge="1" parent="1" source="0Jgzdlky9uCCFu9JZYMr-8" target="0Jgzdlky9uCCFu9JZYMr-9">
          <mxGeometry width="50" height="50" relative="1" as="geometry">
            <mxPoint x="240" y="220" as="sourcePoint" />
            <mxPoint x="290" y="170" as="targetPoint" />
          </mxGeometry>
        </mxCell>
        <mxCell id="0Jgzdlky9uCCFu9JZYMr-66" value="&lt;i&gt;www.example.com&lt;/i&gt;" style="edgeLabel;html=1;align=center;verticalAlign=middle;resizable=0;points=[];" vertex="1" connectable="0" parent="0Jgzdlky9uCCFu9JZYMr-65">
          <mxGeometry x="-0.209" y="3" relative="1" as="geometry">
            <mxPoint as="offset" />
          </mxGeometry>
        </mxCell>
        <mxCell id="0Jgzdlky9uCCFu9JZYMr-68" value="" style="rounded=0;whiteSpace=wrap;html=1;fillColor=none;" vertex="1" parent="1">
          <mxGeometry x="50" y="20" width="860" height="1000" as="geometry" />
        </mxCell>
      </root>
    </mxGraphModel>
  </diagram>
</mxfile>
